<svg xmlns="http://www.w3.org/2000/svg" xmlns:xlink="http://www.w3.org/1999/xlink" width="250" zoomAndPan="magnify" viewBox="0 0 187.5 187.499992" height="250" preserveAspectRatio="xMidYMid meet" version="1.0"><defs><clipPath id="4d7efae01b"><path d="M 60.496094 56.101562 L 126.320312 56.101562 L 126.320312 130.902344 L 60.496094 130.902344 Z M 60.496094 56.101562 " clip-rule="nonzero"/></clipPath></defs><g clip-path="url(#4d7efae01b)"><path fill="#000000" d="M 125.078125 66.148438 L 93.925781 56.1875 C 93.582031 56.0625 93.234375 56.0625 92.886719 56.1875 L 61.738281 66.148438 C 61.378906 66.261719 61.085938 66.472656 60.863281 66.773438 C 60.640625 67.078125 60.527344 67.421875 60.527344 67.796875 L 60.527344 90.53125 C 60.527344 91.238281 60.527344 91.949219 60.527344 92.667969 C 60.757812 96.722656 61.625 100.636719 63.121094 104.40625 C 64.621094 108.179688 66.675781 111.621094 69.28125 114.726562 C 71.824219 117.699219 74.789062 120.15625 78.179688 122.101562 L 92.472656 130.484375 C 92.742188 130.640625 93.027344 130.71875 93.339844 130.71875 C 93.648438 130.71875 93.933594 130.640625 94.203125 130.484375 L 108.496094 122.101562 C 111.886719 120.15625 114.851562 117.699219 117.394531 114.726562 C 120.027344 111.628906 122.105469 108.195312 123.625 104.421875 C 125.148438 100.648438 126.035156 96.730469 126.289062 92.667969 C 126.289062 91.949219 126.289062 91.238281 126.289062 90.53125 L 126.289062 67.796875 C 126.285156 67.421875 126.175781 67.078125 125.949219 66.773438 C 125.726562 66.472656 125.4375 66.261719 125.078125 66.148438 Z M 122.828125 90.53125 C 122.828125 91.175781 122.828125 91.835938 122.828125 92.492188 C 122.609375 96.175781 121.816406 99.726562 120.449219 103.148438 C 119.082031 106.574219 117.207031 109.691406 114.832031 112.503906 C 112.542969 115.164062 109.878906 117.363281 106.835938 119.097656 L 93.40625 126.980469 L 79.976562 119.097656 C 76.933594 117.363281 74.269531 115.164062 71.980469 112.503906 C 69.605469 109.691406 67.734375 106.574219 66.367188 103.148438 C 65 99.726562 64.207031 96.175781 63.988281 92.492188 C 63.988281 91.835938 63.988281 91.175781 63.988281 90.53125 L 63.988281 69.117188 L 93.40625 59.710938 L 122.828125 69.117188 Z M 122.828125 90.53125 " fill-opacity="1" fill-rule="nonzero"/></g><path fill="#000000" d="M 84.441406 80.519531 L 84.441406 87.460938 L 83.023438 87.460938 C 82.6875 87.449219 82.359375 87.503906 82.042969 87.625 C 81.730469 87.746094 81.449219 87.921875 81.207031 88.15625 C 80.960938 88.386719 80.773438 88.660156 80.636719 88.96875 C 80.5 89.28125 80.433594 89.605469 80.425781 89.941406 L 80.425781 105.320312 C 80.433594 105.65625 80.5 105.980469 80.636719 106.292969 C 80.773438 106.601562 80.960938 106.875 81.207031 107.109375 C 81.449219 107.339844 81.730469 107.519531 82.042969 107.636719 C 82.359375 107.757812 82.6875 107.8125 83.023438 107.800781 L 103.964844 107.800781 C 104.296875 107.800781 104.617188 107.738281 104.925781 107.609375 C 105.230469 107.480469 105.503906 107.300781 105.738281 107.0625 C 105.972656 106.828125 106.15625 106.554688 106.28125 106.246094 C 106.410156 105.941406 106.472656 105.617188 106.472656 105.285156 L 106.472656 89.941406 C 106.472656 89.609375 106.40625 89.292969 106.277344 88.984375 C 106.148438 88.679688 105.96875 88.410156 105.730469 88.175781 C 105.496094 87.941406 105.226562 87.761719 104.921875 87.632812 C 104.613281 87.507812 104.296875 87.445312 103.964844 87.445312 L 102.457031 87.445312 L 102.457031 80.5 C 102.457031 79.949219 102.402344 79.398438 102.292969 78.855469 C 102.183594 78.316406 102.023438 77.789062 101.8125 77.277344 C 101.601562 76.765625 101.34375 76.28125 101.035156 75.820312 C 100.730469 75.359375 100.378906 74.933594 99.988281 74.542969 C 99.597656 74.152344 99.175781 73.800781 98.714844 73.492188 C 98.257812 73.1875 97.773438 72.925781 97.261719 72.714844 C 96.753906 72.5 96.226562 72.339844 95.6875 72.230469 C 95.144531 72.125 94.597656 72.066406 94.046875 72.066406 L 92.941406 72.066406 C 92.382812 72.0625 91.832031 72.113281 91.285156 72.21875 C 90.738281 72.324219 90.207031 72.480469 89.695312 72.691406 C 89.179688 72.902344 88.6875 73.160156 88.222656 73.46875 C 87.761719 73.773438 87.332031 74.125 86.9375 74.519531 C 86.539062 74.910156 86.1875 75.339844 85.878906 75.800781 C 85.566406 76.265625 85.304688 76.753906 85.089844 77.269531 C 84.875 77.785156 84.714844 78.316406 84.605469 78.863281 C 84.496094 79.410156 84.441406 79.960938 84.441406 80.519531 Z M 102.925781 104.332031 L 83.890625 104.332031 L 83.890625 90.878906 L 102.925781 90.878906 Z M 98.910156 80.519531 L 98.910156 87.460938 L 87.902344 87.460938 L 87.902344 80.519531 C 87.90625 80.195312 87.9375 79.871094 88 79.550781 C 88.066406 79.234375 88.160156 78.921875 88.285156 78.621094 C 88.410156 78.320312 88.5625 78.035156 88.742188 77.765625 C 88.925781 77.496094 89.128906 77.246094 89.359375 77.015625 C 89.589844 76.785156 89.835938 76.578125 90.109375 76.398438 C 90.378906 76.214844 90.664062 76.0625 90.960938 75.9375 C 91.261719 75.8125 91.570312 75.71875 91.890625 75.652344 C 92.207031 75.589844 92.527344 75.554688 92.851562 75.554688 L 93.960938 75.554688 C 94.285156 75.554688 94.605469 75.589844 94.925781 75.652344 C 95.242188 75.71875 95.550781 75.8125 95.851562 75.9375 C 96.152344 76.0625 96.4375 76.214844 96.707031 76.398438 C 96.976562 76.578125 97.226562 76.785156 97.457031 77.015625 C 97.683594 77.246094 97.890625 77.496094 98.070312 77.765625 C 98.25 78.035156 98.40625 78.320312 98.527344 78.621094 C 98.652344 78.921875 98.75 79.234375 98.8125 79.550781 C 98.875 79.871094 98.910156 80.195312 98.910156 80.519531 Z M 98.910156 80.519531 " fill-opacity="1" fill-rule="nonzero"/></svg>