<svg xmlns="http://www.w3.org/2000/svg" xmlns:xlink="http://www.w3.org/1999/xlink" width="500" zoomAndPan="magnify" viewBox="0 0 375 374.999991" height="500" preserveAspectRatio="xMidYMid meet" version="1.0"><defs><g/><clipPath id="d6df6c31cd"><path d="M 60.976562 150.515625 L 314.023438 150.515625 L 314.023438 224.484375 L 60.976562 224.484375 Z M 60.976562 150.515625 " clip-rule="nonzero"/></clipPath><clipPath id="848a3ce950"><path d="M 60.984375 150.515625 L 313.726562 150.515625 L 313.726562 224.472656 L 60.984375 224.472656 Z M 60.984375 150.515625 " clip-rule="nonzero"/></clipPath></defs><g clip-path="url(#d6df6c31cd)"><path fill="#ffffff" d="M 60.976562 150.515625 L 314.074219 150.515625 L 314.074219 224.484375 L 60.976562 224.484375 Z M 60.976562 150.515625 " fill-opacity="1" fill-rule="nonzero"/></g><g clip-path="url(#848a3ce950)"><path stroke-linecap="butt" transform="matrix(0.75, 0, 0, 0.75, 60.985517, 150.517301)" fill="none" stroke-linejoin="miter" d="M -0.00152306 -0.00223402 L 337.363061 -0.00223402 L 337.363061 98.607141 L -0.00152306 98.607141 Z M -0.00152306 -0.00223402 " stroke="#000000" stroke-width="8" stroke-opacity="1" stroke-miterlimit="4"/></g><g fill="#000000" fill-opacity="1"><g transform="translate(111.793782, 201.179387)"><g><path d="M 15.890625 -30.828125 L 27.28125 0 L 21.03125 0 L 18.71875 -6.328125 L 8.28125 -6.328125 L 5.8125 0 L -0.359375 0 L 11.34375 -30.828125 Z M 9.953125 -11.109375 L 17.09375 -11.109375 L 13.34375 -22.03125 L 13.265625 -22.03125 Z M 9.953125 -11.109375 "/></g></g></g><g fill="#000000" fill-opacity="1"><g transform="translate(147.324961, 201.179387)"><g><path d="M 8 -30.03125 L 8 -5.09375 L 16.296875 -5.09375 L 16.296875 0 L 2.15625 0 L 2.15625 -30.03125 Z M 8 -30.03125 "/></g></g></g><g fill="#000000" fill-opacity="1"><g transform="translate(171.942151, 201.179387)"><g><path d="M 10.3125 -30.03125 C 13.6875 -30.03125 16.226562 -29.253906 17.9375 -27.703125 C 19.65625 -26.148438 20.515625 -23.816406 20.515625 -20.703125 C 20.515625 -17.523438 19.675781 -15.148438 18 -13.578125 C 16.332031 -12.015625 14.035156 -11.234375 11.109375 -11.234375 L 8 -11.234375 L 8 0 L 2.15625 0 L 2.15625 -30.03125 Z M 8 -16.09375 L 9.28125 -16.09375 C 11.113281 -16.09375 12.445312 -16.40625 13.28125 -17.03125 C 14.113281 -17.65625 14.53125 -18.894531 14.53125 -20.75 C 14.53125 -22.394531 14.125 -23.539062 13.3125 -24.1875 C 12.507812 -24.84375 11.191406 -25.171875 9.359375 -25.171875 L 8 -25.171875 Z M 8 -16.09375 "/></g></g></g><g fill="#000000" fill-opacity="1"><g transform="translate(201.578181, 201.179387)"><g><path d="M 8 -30.03125 L 8 -18.203125 L 18.84375 -18.203125 L 18.84375 -30.03125 L 24.6875 -30.03125 L 24.6875 0 L 18.84375 0 L 18.84375 -13.421875 L 8 -13.421875 L 8 0 L 2.15625 0 L 2.15625 -30.03125 Z M 8 -30.03125 "/></g></g></g><g fill="#000000" fill-opacity="1"><g transform="translate(237.029697, 201.179387)"><g><path d="M 15.890625 -30.828125 L 27.28125 0 L 21.03125 0 L 18.71875 -6.328125 L 8.28125 -6.328125 L 5.8125 0 L -0.359375 0 L 11.34375 -30.828125 Z M 9.953125 -11.109375 L 17.09375 -11.109375 L 13.34375 -22.03125 L 13.265625 -22.03125 Z M 9.953125 -11.109375 "/></g></g></g></svg>