<svg xmlns="http://www.w3.org/2000/svg" xmlns:xlink="http://www.w3.org/1999/xlink" width="250" zoomAndPan="magnify" viewBox="0 0 187.5 187.499992" height="250" preserveAspectRatio="xMidYMid meet" version="1.0"><defs><clipPath id="044ddc85e9"><path d="M 105 63.394531 L 130.902344 63.394531 L 130.902344 109 L 105 109 Z M 105 63.394531 " clip-rule="nonzero"/></clipPath><clipPath id="d2e6b0d08a"><path d="M 56.101562 63.394531 L 82 63.394531 L 82 109 L 56.101562 109 Z M 56.101562 63.394531 " clip-rule="nonzero"/></clipPath><clipPath id="0390b286f3"><path d="M 67 64 L 120 64 L 120 123.980469 L 67 123.980469 Z M 67 64 " clip-rule="nonzero"/></clipPath></defs><g clip-path="url(#044ddc85e9)"><path fill="#100f0d" d="M 112.988281 81.617188 C 112.988281 87.78125 110.574219 93.5 106.585938 97.476562 L 107.519531 97.882812 C 112.59375 100.082031 116.6875 103.765625 119.398438 108.351562 L 130.902344 108.351562 L 130.292969 104.175781 C 129.46875 98.527344 125.796875 93.710938 120.585938 91.453125 L 115.003906 89.03125 C 119.621094 87.261719 122.945312 82.367188 122.945312 76.585938 C 122.945312 69.316406 117.691406 63.425781 111.214844 63.425781 C 109.234375 63.425781 107.386719 64 105.757812 64.984375 C 110.164062 68.914062 112.988281 74.90625 112.988281 81.617188 " fill-opacity="1" fill-rule="nonzero"/></g><g clip-path="url(#d2e6b0d08a)"><path fill="#100f0d" d="M 79.480469 97.882812 L 80.417969 97.476562 C 76.425781 93.5 74.015625 87.78125 74.015625 81.617188 C 74.015625 74.90625 76.839844 68.914062 81.242188 64.984375 C 79.617188 64 77.769531 63.425781 75.789062 63.425781 C 69.308594 63.425781 64.058594 69.316406 64.058594 76.585938 C 64.058594 82.367188 67.378906 87.261719 71.996094 89.03125 L 66.414062 91.453125 C 61.207031 93.714844 57.53125 98.527344 56.707031 104.175781 L 56.097656 108.351562 L 67.601562 108.351562 C 70.3125 103.765625 74.410156 100.082031 79.480469 97.882812 " fill-opacity="1" fill-rule="nonzero"/></g><g clip-path="url(#0390b286f3)"><path fill="#100f0d" d="M 68.058594 118.398438 L 67.246094 123.96875 L 119.753906 123.96875 L 118.941406 118.402344 C 117.84375 110.871094 112.945312 104.449219 106 101.4375 L 98.558594 98.210938 C 104.710938 95.847656 109.140625 89.320312 109.140625 81.617188 C 109.140625 71.921875 102.140625 64.066406 93.5 64.066406 C 84.863281 64.066406 77.859375 71.921875 77.859375 81.617188 C 77.859375 89.320312 82.292969 95.847656 88.445312 98.210938 L 81.003906 101.4375 C 74.058594 104.449219 69.160156 110.871094 68.058594 118.398438 " fill-opacity="1" fill-rule="nonzero"/></g></svg>