<svg xmlns="http://www.w3.org/2000/svg" xmlns:xlink="http://www.w3.org/1999/xlink" width="250" zoomAndPan="magnify" viewBox="0 0 187.5 187.499992" height="250" preserveAspectRatio="xMidYMid meet" version="1.0"><defs><clipPath id="a0da20c318"><path d="M 64.8125 73.59375 L 122.175781 73.59375 L 122.175781 128.003906 L 64.8125 128.003906 Z M 64.8125 73.59375 " clip-rule="nonzero"/></clipPath><clipPath id="aacee7c610"><path d="M 56.101562 59.1875 L 130.902344 59.1875 L 130.902344 96 L 56.101562 96 Z M 56.101562 59.1875 " clip-rule="nonzero"/></clipPath></defs><g clip-path="url(#a0da20c318)"><path fill="#000000" d="M 121.800781 98.171875 L 94.722656 74.1875 C 94.019531 73.5625 92.964844 73.5625 92.265625 74.1875 L 65.183594 98.171875 C 64.984375 98.347656 64.871094 98.601562 64.871094 98.871094 L 64.871094 127.082031 C 64.871094 127.59375 65.285156 128.011719 65.800781 128.011719 L 84.835938 128.011719 C 85.347656 128.011719 85.761719 127.59375 85.761719 127.082031 L 85.761719 109.0625 C 85.761719 107.007812 87.425781 105.339844 89.472656 105.339844 L 97.511719 105.339844 C 99.5625 105.339844 101.222656 107.007812 101.222656 109.0625 L 101.222656 127.082031 C 101.222656 127.59375 101.640625 128.011719 102.152344 128.011719 L 121.1875 128.011719 C 121.699219 128.011719 122.117188 127.59375 122.117188 127.082031 L 122.117188 98.871094 C 122.117188 98.601562 122 98.347656 121.800781 98.171875 " fill-opacity="1" fill-rule="nonzero"/></g><g clip-path="url(#aacee7c610)"><path fill="#000000" d="M 129.261719 88.863281 L 98.394531 61.660156 C 95.589844 59.191406 91.394531 59.191406 88.59375 61.660156 L 57.722656 88.863281 C 56.203125 90.207031 56.128906 92.558594 57.558594 93.992188 C 58.867188 95.304688 60.96875 95.371094 62.359375 94.144531 L 91.039062 68.816406 C 92.441406 67.574219 94.542969 67.574219 95.945312 68.8125 L 124.628906 94.144531 C 126.019531 95.371094 128.117188 95.304688 129.425781 93.992188 C 130.859375 92.558594 130.785156 90.207031 129.261719 88.863281 " fill-opacity="1" fill-rule="nonzero"/></g></svg>