<svg xmlns="http://www.w3.org/2000/svg" xmlns:xlink="http://www.w3.org/1999/xlink" width="250" zoomAndPan="magnify" viewBox="0 0 187.5 187.499992" height="250" preserveAspectRatio="xMidYMid meet" version="1.0"><defs><clipPath id="865cf1c313"><path d="M 56.101562 56.101562 L 130.902344 56.101562 L 130.902344 130.902344 L 56.101562 130.902344 Z M 56.101562 56.101562 " clip-rule="nonzero"/></clipPath></defs><g clip-path="url(#865cf1c313)"><path fill="#040606" d="M 106.929688 105.175781 L 106.523438 105.175781 L 106.976562 102.398438 L 109.898438 102.398438 L 111.996094 105.175781 Z M 70.386719 102.398438 L 72.628906 102.398438 L 72.179688 105.175781 L 68.289062 105.175781 Z M 79.609375 74.25 L 94.332031 76.648438 L 90.519531 78.246094 L 87.699219 79.527344 C 87.664062 79.546875 87.632812 79.5625 87.597656 79.582031 C 86.304688 80.332031 85.378906 81.539062 84.988281 82.980469 C 84.601562 84.429688 84.800781 85.945312 85.558594 87.246094 C 86.550781 88.957031 88.277344 89.839844 90.527344 89.839844 C 91.285156 89.839844 92.101562 89.742188 92.972656 89.542969 C 96.359375 88.753906 102.613281 87.257812 107.253906 86.015625 L 104.140625 105.175781 L 74.570312 105.175781 Z M 89.804688 65.078125 C 92.09375 64.507812 107.707031 63.988281 114.167969 63.824219 L 118.65625 77.132812 C 116.226562 78.972656 112.5 81.746094 111.730469 82.191406 C 110.808594 82.722656 102.871094 84.800781 92.433594 87.246094 C 90.765625 87.628906 88.574219 87.742188 87.597656 86.054688 C 87.167969 85.304688 87.046875 84.429688 87.273438 83.59375 C 87.492188 82.769531 88.011719 82.085938 88.734375 81.652344 L 91.46875 80.40625 L 100.941406 76.433594 C 101.542969 76.183594 101.824219 75.492188 101.578125 74.886719 C 101.324219 74.289062 100.628906 74.003906 100.03125 74.257812 L 98.441406 74.921875 L 84.902344 72.722656 C 86.617188 68.703125 88.402344 65.425781 89.804688 65.078125 Z M 107.847656 97.074219 L 109.757812 85.320312 C 111.332031 84.859375 112.480469 84.484375 112.914062 84.230469 C 113.863281 83.679688 117.707031 80.804688 119.453125 79.488281 L 121.085938 84.335938 L 130.589844 81.898438 L 124.035156 56.101562 L 112.554688 59.054688 L 113.378906 61.484375 C 108.398438 61.617188 91.953125 62.117188 89.230469 62.789062 C 86.933594 63.359375 84.734375 67.023438 82.5 72.332031 L 78.820312 71.738281 C 78.167969 71.625 77.570312 72.070312 77.464844 72.707031 L 73.5 97.074219 L 65.710938 97.074219 L 56.441406 109.351562 L 56.441406 130.902344 L 123.851562 130.902344 L 123.851562 109.351562 L 114.578125 97.074219 L 107.847656 97.074219 " fill-opacity="1" fill-rule="nonzero"/></g></svg>